# xmcd
#
# Track frame offsets:
#	150
#	15225
#	29250
#	48375
#	60900
#	73575
#	87150
#	103650
#	119850
#	134775
#	147750
#	161100
#	172725
#	191925
#	208500
#	221850
#
# Disc length: 3133 seconds
#
# Revision: 1
# Processed by: cddbd v1.5.2PL0 Copyright (c) Steve Scherf et al.
# Submitted via: audiograbber 1.83.01
#
DISCID=ec0c3b10
DTITLE=Milan Drobny - Na jednom polstari pod jednou dekou
DYEAR=2007
DGENRE=Country
TTITLE0=To jsem ja kdo starsim autem jezdi
TTITLE1=Bez rekni to tem skalam
TTITLE2=On ma se krasne ona ma se lip
TTITLE3=Piják
TTITLE4=Dej mi tlapku dam ti svou
TTITLE5=Ja mam rajon u trznice
TTITLE6=Na jednom polstari pod jednou dekou
TTITLE7=Pribeh jedne polarni noci
TTITLE8=Lady z Ria
TTITLE9=Nadváhu mám
TTITLE10=Rodinne svatky
TTITLE11=Volební
TTITLE12=Karaoke On ma se krasne
TTITLE13=Karaoke Na jednom polstari
TTITLE14=Karaoke Rodinne svatky
TTITLE15=Karaoke Bez rekni to tem skalam
EXTD=
EXTT0=
EXTT1=
EXTT2=
EXTT3=
EXTT4=
EXTT5=
EXTT6=
EXTT7=
EXTT8=
EXTT9=
EXTT10=
EXTT11=
EXTT12=
EXTT13=
EXTT14=
EXTT15=
PLAYORDER=
